<?xml version="1.0" encoding="UTF-8" standalone="no"?>
<svg
   xmlns:dc="http://purl.org/dc/elements/1.1/"
   xmlns:cc="http://creativecommons.org/ns#"
   xmlns:rdf="http://www.w3.org/1999/02/22-rdf-syntax-ns#"
   xmlns:svg="http://www.w3.org/2000/svg"
   xmlns="http://www.w3.org/2000/svg"
   xmlns:sodipodi="http://sodipodi.sourceforge.net/DTD/sodipodi-0.dtd"
   xmlns:inkscape="http://www.inkscape.org/namespaces/inkscape"
   height="300px"
   width="300px"
   fill="#000000"
   xml:space="preserve"
   version="1.1"
   style="shape-rendering:geometricPrecision;text-rendering:geometricPrecision;image-rendering:optimizeQuality;"
   viewBox="0 0 130 275"
   x="0px"
   y="0px"
   fill-rule="evenodd"
   clip-rule="evenodd"
   id="svg887"
   sodipodi:docname="flower.svg"
   inkscape:version="0.92.5 (2060ec1f9f, 2020-04-08)"><metadata
     id="metadata891"><rdf:RDF><cc:Work
         rdf:about=""><dc:format>image/svg+xml</dc:format><dc:type
           rdf:resource="http://purl.org/dc/dcmitype/StillImage" /><dc:title></dc:title></cc:Work></rdf:RDF></metadata><sodipodi:namedview
     pagecolor="#ffffff"
     bordercolor="#666666"
     borderopacity="1"
     objecttolerance="10"
     gridtolerance="10"
     guidetolerance="10"
     inkscape:pageopacity="0"
     inkscape:pageshadow="2"
     inkscape:window-width="1920"
     inkscape:window-height="952"
     id="namedview889"
     showgrid="false"
     inkscape:zoom="2.3366667"
     inkscape:cx="150"
     inkscape:cy="149.93782"
     inkscape:window-x="0"
     inkscape:window-y="54"
     inkscape:window-maximized="1"
     inkscape:current-layer="svg887" /><defs
     id="defs875"><style
       type="text/css"
       id="style873">
   
    .str0 {stroke:black;stroke-width:3.0984}
    .fil2 {fill:none}
    .fil0 {fill:#000000}
    .fil1 {fill:#000000}
   
  </style></defs><g
     id="g899"
     transform="matrix(2.1264114,0,0,2.2050586,-72.441976,3.7147697e-7)"><path
       class="fil0"
       d="M 65,6 C 53,-7 35,4 37,23 35,23 33,22 31,22 22,21 11,23 8,33 c -1,5 0,9 3,12 -18,8 -13,29 8,32 -1,2 -2,3 -2,4 -5,8 -8,19 0,26 4,4 10,4 15,2 0,6 2,11 7,14 10,5 19,-2 24,-9 1,-1 2,-2 2,-3 1,1 1,1 2,2 4,7 13,14 22,11 7,-3 9,-9 10,-15 4,2 9,2 13,-1 8,-6 6,-18 2,-26 -1,-2 -2,-3 -3,-4 20,-4 25,-25 8,-33 3,-3 4,-7 3,-12 -3,-9 -14,-12 -23,-11 -2,0 -3,1 -5,1 0,-1 0,-3 -1,-5 C 92,10 87,0 77,0 72,0 68,2 65,6 Z m 1,31 C 64,-15 26,13 56,44 26,13 -12,40 45,52 -12,40 3,85 49,65 3,85 17,130 53,77 c -36,53 11,53 13,0 -2,53 45,53 14,0 31,53 46,8 4,-12 42,20 56,-25 4,-13 C 140,40 102,13 77,44 102,13 64,-15 66,37 Z"
       id="path877"
       inkscape:connector-curvature="0"
       style="fill:#000000" /><circle
       class="fil1"
       cx="66"
       cy="59"
       r="14"
       id="circle879"
       style="fill:#000000" /></g></svg>