<?xml version="1.0" standalone="no"?>
<!DOCTYPE svg PUBLIC "-//W3C//DTD SVG 20010904//EN"
 "http://www.w3.org/TR/2001/REC-SVG-20010904/DTD/svg10.dtd">
<svg version="1.0" xmlns="http://www.w3.org/2000/svg"
 width="320.000000pt" height="320.000000pt" viewBox="0 0 320.000000 320.000000"
 preserveAspectRatio="xMidYMid meet">
<metadata>
Created by potrace 1.11, written by Peter Selinger 2001-2013
</metadata>
<g transform="translate(0.000000,320.000000) scale(0.100000,-0.100000)"
fill="#000000" stroke="none">
<path d="M1272 3089 c-186 -36 -321 -237 -322 -477 0 -56 -2 -63 -17 -58 -49
15 -134 26 -207 26 -211 -1 -358 -76 -424 -219 -22 -46 -26 -71 -26 -136 0
-75 16 -129 61 -205 2 -3 -17 -16 -42 -29 -66 -35 -149 -129 -175 -198 -32
-85 -26 -206 14 -287 56 -115 194 -217 333 -247 32 -7 59 -13 60 -14 2 -1 -20
-48 -48 -106 -78 -157 -91 -200 -96 -319 -4 -92 -2 -112 17 -165 33 -85 125
-177 199 -199 76 -22 131 -20 219 8 20 7 22 4 22 -26 1 -98 51 -211 119 -270
76 -65 205 -87 317 -53 80 23 183 103 265 204 56 68 76 87 86 79 7 -6 33 -39
58 -73 59 -83 132 -147 213 -187 61 -30 74 -33 162 -33 111 0 146 13 216 82
51 49 86 118 110 215 l16 65 47 -14 c28 -9 70 -13 106 -10 164 12 275 156 275
356 0 128 -53 306 -116 388 -18 24 -22 34 -12 37 7 3 31 10 53 16 129 39 254
143 308 257 30 63 32 75 32 173 0 91 -3 112 -25 155 -30 61 -87 125 -146 162
-46 30 -53 43 -30 62 26 21 46 102 46 181 0 95 -28 156 -101 225 -121 113
-351 157 -526 101 -19 -6 -23 -3 -29 31 -49 276 -132 426 -267 489 -53 24 -68
26 -150 22 -78 -3 -100 -8 -145 -33 -29 -16 -67 -44 -83 -63 l-30 -34 -27 25
c-48 44 -106 76 -167 92 -65 16 -79 17 -143 4z m143 -221 c105 -72 183 -276
201 -524 10 -132 19 -128 21 9 3 151 17 250 50 347 56 171 154 239 255 177
178 -107 181 -468 7 -738 -46 -71 -46 -88 0 -30 50 62 172 156 263 200 114 56
192 74 299 69 251 -12 307 -190 105 -333 -86 -61 -152 -91 -301 -141 -140 -47
-144 -52 -20 -29 107 19 324 19 398 0 123 -32 196 -88 217 -165 30 -111 -74
-233 -235 -275 -74 -19 -238 -19 -326 -1 -37 8 -100 26 -140 41 -116 42 -119
40 -34 -13 203 -127 358 -300 433 -484 34 -85 42 -209 16 -263 -36 -76 -121
-81 -226 -14 -80 51 -220 208 -314 351 -111 168 -116 173 -61 63 114 -231 170
-419 171 -575 1 -91 -2 -111 -23 -153 -68 -138 -226 -111 -347 59 -93 131
-155 311 -175 509 -6 61 -14 142 -18 180 -8 67 -8 68 -10 18 -2 -89 -40 -282
-76 -391 -91 -272 -239 -450 -385 -460 -52 -4 -59 -2 -87 26 -105 105 -49 379
150 735 36 64 64 117 63 117 -2 0 -43 -53 -92 -117 -215 -284 -426 -440 -546
-404 -61 19 -80 57 -75 157 3 68 9 93 40 159 90 189 259 357 495 491 88 51 86
54 -9 19 -113 -40 -255 -65 -376 -65 -165 0 -289 40 -366 116 -123 123 -63
264 142 331 73 24 332 29 466 9 61 -9 121 -19 135 -23 14 -3 22 -3 19 0 -3 4
-48 18 -101 31 -356 93 -583 251 -547 380 20 72 117 116 254 116 187 0 407
-96 583 -255 34 -31 62 -54 62 -51 0 2 -25 38 -55 78 -65 87 -114 177 -146
273 -20 58 -24 90 -24 185 0 106 2 119 29 173 56 116 148 148 241 85z"/>
<path d="M1534 2006 c-150 -47 -255 -223 -226 -378 22 -120 88 -209 190 -256
77 -36 194 -38 263 -4 74 36 125 87 161 160 30 60 33 76 33 152 0 76 -3 93
-33 152 -73 150 -235 222 -388 174z"/>
</g>
</svg>
