<svg version="1" xmlns="http://www.w3.org/2000/svg" width="480" height="480" viewBox="0 0 360.000000 360.000000"><path d="M147.2 31.1c-18.6 3.6-32.1 23.7-32.2 47.7 0 5.6-.2 6.3-1.7 5.8-4.9-1.5-13.4-2.6-20.7-2.6-21.1.1-35.8 7.6-42.4 21.9-2.2 4.6-2.6 7.1-2.6 13.6 0 7.5 1.6 12.9 6.1 20.5.2.3-1.7 1.6-4.2 2.9-6.6 3.5-14.9 12.9-17.5 19.8-3.2 8.5-2.6 20.6 1.4 28.7 5.6 11.5 19.4 21.7 33.3 24.7 3.2.7 5.9 1.3 6 1.4.2.1-2 4.8-4.8 10.6-7.8 15.7-9.1 20-9.6 31.9-.4 9.2-.2 11.2 1.7 16.5 3.3 8.5 12.5 17.7 19.9 19.9 7.6 2.2 13.1 2 21.9-.8 2-.7 2.2-.4 2.2 2.6.1 9.8 5.1 21.1 11.9 27 7.6 6.5 20.5 8.7 31.7 5.3 8-2.3 18.3-10.3 26.5-20.4 5.6-6.8 7.6-8.7 8.6-7.9.7.6 3.3 3.9 5.8 7.3 5.9 8.3 13.2 14.7 21.3 18.7 6.1 3 7.4 3.3 16.2 3.3 11.1 0 14.6-1.3 21.6-8.2 5.1-4.9 8.6-11.8 11-21.5l1.6-6.5 4.7 1.4c2.8.9 7 1.3 10.6 1 16.4-1.2 27.5-15.6 27.5-35.6 0-12.8-5.3-30.6-11.6-38.8-1.8-2.4-2.2-3.4-1.2-3.7.7-.3 3.1-1 5.3-1.6 12.9-3.9 25.4-14.3 30.8-25.7 3-6.3 3.2-7.5 3.2-17.3 0-9.1-.3-11.2-2.5-15.5-3-6.1-8.7-12.5-14.6-16.2-4.6-3-5.3-4.3-3-6.2 2.6-2.1 4.6-10.2 4.6-18.1 0-9.5-2.8-15.6-10.1-22.5-12.1-11.3-35.1-15.7-52.6-10.1-1.9.6-2.3.3-2.9-3.1-4.9-27.6-13.2-42.6-26.7-48.9-5.3-2.4-6.8-2.6-15-2.2-7.8.3-10 .8-14.5 3.3-2.9 1.6-6.7 4.4-8.3 6.3l-3 3.4-2.7-2.5c-4.8-4.4-10.6-7.6-16.7-9.2-6.5-1.6-7.9-1.7-14.3-.4zm10.5 20c3.7 1.3 9.8 7.3 12.8 12.6 5.7 9.5 11.5 33.8 11.5 47.9 0 2.7.4 5.6 1 6.4.6.9.9-3.2.9-11.7.1-7.3.6-16.5 1.2-20.5 5.1-33 21.4-45.6 35.4-27.2 5 6.5 7 14.2 7 26.4-.1 15.4-4.9 29.4-15.5 45.1-2.3 3.2-3.8 5.9-3.5 5.9.3 0 3.6-3.2 7.3-7.1 12.8-13.6 26.9-22.4 41-25.5 17.8-4 34.8 1.7 36.8 12.3 2.4 12.5-19.5 28.2-50.8 36.5-4.9 1.2-8.8 2.6-8.8 2.9 0 .3 3.9-.3 8.8-1.3 12.5-2.8 36.5-3.5 45.5-1.4 8.5 2 13.6 4.6 18 9.1 12.2 12.5.7 30.8-22.3 35.6-13.4 2.8-35.2-.6-51.7-8.1-3.6-1.7-6.8-2.8-7-2.6-.2.2 3.1 2.4 7.4 4.9 29.3 16.9 51.2 45.6 51.3 67 0 24.2-20.8 20.5-43.9-7.7-6.3-7.6-21.6-30.6-22.6-33.7-.4-1.1-1.1-1.9-1.6-1.9s1.8 5.5 5.2 12.2c12.5 25 18.1 42.7 18.3 58.3.1 10.8-1.9 17-7 21.5-11.5 10-31.2-5.8-40.9-33-4.7-13.3-6.6-24.2-7.2-42.5-.3-9.8-.9-16.2-1.4-15-.4 1.1-.8 4.3-.8 7.2-.2 11.7-5.1 33.9-10.6 47.8-8.6 21.6-24.5 38.5-36.3 38.5-3.6 0-5-.6-7.7-3.3-3.5-3.5-5.5-8.9-5.5-14.8 0-14.7 9.8-40.6 24.6-65.2 7.4-12.1 8.1-15.4 1.2-5-13.8 20.8-34.3 42.2-46.7 48.7-9.9 5.2-15.8 5.4-20.4.8-3.1-3.1-3.2-3.5-3.1-11.5 0-6 .6-9.7 2.3-13.9 7.7-19.8 30.3-41.9 56-54.7 4.5-2.3 8.1-4.4 7.9-4.6-.2-.3-3.9.9-8.1 2.5-14.8 5.8-25.3 8.1-39.2 8.7-9.9.4-14.6.1-19.8-1.1-13.7-3.2-24.2-10.8-26.8-19.5-2.3-7.7 3.5-16.7 13.8-21.3 10.9-4.8 33.2-6.2 52.3-3.4 17.8 2.7 18.5 2.7 6.5-.8-22.6-6.4-36.5-12.5-45.9-19.9C59.4 118 66 103.4 90 102.2c20.5-1 42.6 8.9 64.4 28.9 6.5 6 7.3 5.6 1.6-.8-24.6-28-29.3-66.4-9.6-78.4 3.5-2.1 7.1-2.4 11.3-.8z"/><path d="M172.9 139.3c-9.1 3.4-15.5 9.4-19.8 18.7-3.7 7.9-3.7 20.1.1 28.1 3.5 7.6 8.8 13.3 15.6 16.6 7.7 3.8 20 4 27.9.4 6.2-2.7 13.5-10.2 16.6-16.9 3.1-6.7 3.1-21.7 0-28.4-2.9-6.3-9.7-13.4-15.8-16.6-6.1-3.1-18.7-4.1-24.6-1.9z"/></svg>